<svg version="1.0" width="682.667" height="682.667" viewBox="0 0 512 512" xmlns="http://www.w3.org/2000/svg"><path d="M316.7 63c-6.5 1.7-13.1 5.6-18 10.9-5.9 6.3-8.7 12.3-9.5 20.6-.7 6.3-1 6.8-33.2 55.9-17.9 27.3-33.3 49.601-33 49.6 1.571-.005-.688-37.171-.097-50.328-1.246-32.92.17-50.13-2.057-51.342-2.1-1.4-60.346-2.33-111.946-2.13-57.7.3-58.4.3-62.4 2.5-4.7 2.5-9.5 7.4-12.1 12.3-1.8 3.2-1.9 7.2-2.4 50.7l-.5 47.2-6.2 3.1c-6.8 3.4-10 6.7-14.1 14.4l-2.7 5.1-.3 50.8-.3 50.7 2.5 2.5 2.5 2.5H72v8.7l-10.8.6c-12.9.7-21.6 3.2-29.8 8.5-19.4 12.6-28 37.6-20.4 59.6 5.6 16.3 19.9 29 37.2 33.1 5.3 1.2 21.3 1.5 102.9 1.5 64.6 0 98.5-.4 102.5-1.1 23.8-4.3 41.4-25.7 41.4-50.4 0-14.4-5.1-26.5-15.5-36.5-10.7-10.2-23.6-14.9-41.2-15H232v-9h28.9c27.7 0 28.9-.1 31.5-2.1l2.6-2V232.3l-3-5.9-2.9-5.8 19.6-38.6c10.7-21.2 19.8-38.8 20.2-39.2.7-.8 90.5 85.7 90.9 87.5.2 1.1-25.8 47-27.8 49.1-.5.5 4.759 1.05-.043.071-13.387-2.314-9.698.145-10.252 7.547-.932 12.46-11.276 2.647 27.402 14.261 20.3 5 40.393 9.821 42.893 10.221 6 .9 17.7-1.7 24.2-5.2 7-3.8 14.2-11.2 17.7-18.1 3.9-7.8 9.2-24.5 9.8-31.3.7-6.9-1.5-14.7-5.8-21.2-2.4-3.7-8.1-8.3-25.5-20.8L450 198.8l-45-53.9c-24.7-29.6-45-54.4-45-55.2 0-.8-1.4-4.1-3-7.4-5.8-11.6-17-19.1-29.7-19.8-3.7-.2-8.5 0-10.6.5zm17.4 17.6c5.8 2.9 10.9 11.3 10.9 18 0 6.5-5.3 14.7-11.4 17.5-10.3 4.7-22.1.4-26.7-9.6-5.1-11.1 1.5-24.6 13.5-27.6 3.8-.9 10.2-.1 13.7 1.7zM74 160v48H48v-44.3c.1-47.3.1-47.5 5.1-50.3 1.5-.8 5.9-1.3 11.7-1.4H74zm129.308-5.423C202.897 180.12 205.395 203 204.7 203c-.6 0-5.9-1.3-11.7-2.9-7.5-2-10.4-3.3-10.1-4.2.2-.8.5-3 .8-5 1.687-5.961-10.175-6.763-12.9-7.1-2.1 2.1-9.8 28.1-9.8 33.1 0 3.8 3.7 7.1 8 7.1s6.6-2.1 8.1-7.4c.6-2.1 1.6-3.6 2.3-3.4 19.1 4.8 31.6 8.5 31.6 9.3 0 .5-1.7 6.4-3.8 13l-3.8 12h-64.8l-5.3-17.5c-6.9-23.2-5.5-22-26.9-22H90v-96l112.229.261zM391 153.1c17.9 21.4 35.1 42 38.2 45.7l5.6 6.8-3 5.2-3 5.2-43.4-42.2c-23.9-23.2-43.3-42.4-43.2-42.8.2-.4 2.3-2.3 4.8-4.2 2.5-1.8 5.9-5.5 7.5-8 1.7-2.6 3.2-4.7 3.5-4.7.3 0 15.1 17.5 33 39zm-80.5-21.5c2.5.9 4.4 2.1 4.3 2.5-.2.4-8.8 17.7-19.3 38.4-18.4 36.3-19.1 37.5-21.5 36.9-1.4-.3-10-.8-19.2-1.1-9.3-.3-16.8-.6-16.8-.8 0-.2 12.9-20 28.6-43.9l28.6-43.6 5.4 4.9c2.9 2.7 7.4 5.7 9.9 6.7zm156 99c23.2 16.6 24 18.3 18 36.6-4.6 14.1-7.4 19-12.8 22.6-5.4 3.7-9.9 5.2-15.6 5.2-5.2.1-47.1-10-47.1-11.3 0-.6 27.5-48.7 37.7-66 .6-.9-.2-1.4 19.8 12.9zm-347 9.6c5.7 19.1 6.8 21.6 10.1 22.8 1.5.6 19.4 1 42.3 1 38.1 0 39.9-.1 42.3-2 2-1.5 3.6-5.6 7.9-20l5.3-18.1 20.7.3c23 .3 23.7.5 28.7 7.8 2.2 3.3 2.2 3.3 2.2 46.6V322H23.9l.3-43.8.3-43.7 2.4-3.4c4.9-6.9 6-7.1 49.2-7.1h38.6zM215 342.5v4.5H88v-9h127zm41.7 23.7c7.3 2.7 15.4 10.2 19 17.7 2.4 4.9 2.8 6.8 2.8 14.6 0 7.7-.4 9.8-2.7 14.7-5 10.7-14.6 17.9-26.4 19.8-8.2 1.4-187 1.3-195.3 0-7.7-1.3-12.9-3.8-18.6-9.1-6-5.5-8.7-12.4-9.3-23-.7-14.4 3.5-24.1 13.4-31 8.8-6 4.1-5.8 112.1-5.8l99.2-.1z"/><path d="M53 255.5c-3.3 1.9-16.3 24.7-16.3 28.6 0 4.1.894 4.52 5.194 4.52 1.9 0 6.378 3.17 7.178 2.57 2.4-2 15.928-26.69 15.928-28.99-.66-3.326-10.177-7.631-12-6.7zm36.4-.5c-5.773 5.595-16.91 21.407-17.4 29.1 0 3.1 5.68 4.836 9.08 5.636 4.1 1 4.82-.336 12.12-12.836 8.2-13.9 7.949-16.288 1.849-19.388-3.2-1.7-2.749-3.712-5.649-2.512zM52 375.5c-13.4 4.2-20.6 19.9-14.9 32.5 2.7 6 6.4 9.8 12.4 12.6l5 2.4h96.6c105 0 100.8.2 108.4-5.5 7.4-5.7 10.8-19.2 6.9-28.3-1.9-4.7-6.7-9.7-11.9-12.5l-4-2.2-97-.2c-81.1-.2-97.7 0-101.5 1.2z"/><path d="M24.511 278.163l.198-43.345 2.365-3.344c3.123-4.416 5.77-5.751 12.863-6.49 5.431-.566 74.703-.848 74.703-.304 0 1.215 9.566 31.604 10.71 34.02 2.589 5.473-1.16 5.058 45.603 5.058 47.2 0 43.141.498 46.001-5.65 1.452-3.12 7.927-23.691 9.803-31.141l.686-2.726 19.02.312c24.502.402 25.926.774 30.131 7.887 1.527 2.581 1.53 2.614 1.903 18.388.206 8.692.4 28.15.431 43.242l.057 27.438H24.313zm245.855-69.333c-2.212-.214-9.881-.584-17.042-.821-7.16-.237-13.329-.623-13.708-.858-.482-.297.517-2.315 3.302-6.675 6.251-9.785 51.362-78.592 51.907-79.174.283-.303 1.598.42 3.138 1.724 6.174 5.229 8.25 6.697 12.196 8.623 2.292 1.119 4.166 2.184 4.166 2.368 0 .732-32.917 65.5-35.473 69.797-1.506 2.532-3.127 4.785-3.601 5.006-.475.22-2.673.225-4.885.01zm120.386-30.348c-20.701-20.188-40.043-39.144-42.982-42.124l-5.343-5.419 4.34-3.562c2.423-1.988 5.779-5.527 7.593-8.007a1679.45 1679.45 0 013.4-4.638c.22-.288 3.07 2.955 13.822 15.726 17.116 20.33 61.288 73.237 62.026 74.29.606.865.31 1.729-1.965 5.73-1.473 2.593-2.807 4.712-2.965 4.711-.158-.001-17.225-16.519-37.926-36.707zm55.165 114.578c-8.87-1.919-21.826-5.081-29.784-7.27-5.415-1.488-6.468-1.956-6.253-2.778.266-1.015 15.802-28.432 29.566-52.173l7.757-13.382 1.512.98c4.189 2.717 26.167 18.636 29.706 21.517 6.375 5.188 8.87 9.103 8.87 13.917 0 4.64-5.404 21.449-9.048 28.144-2.044 3.756-6.552 7.78-11.409 10.181-5.413 2.678-11.397 2.925-20.917.865z" fill="#fff"/><path d="M138.872 246.95c-.142-.238-2.246-7.025-4.677-15.085-6.085-20.172-7.374-22.508-13.028-23.6-1.378-.267-8.905-.496-16.727-.51l-14.222-.024v-95.39l112.01-.08c.734 13.992.814 40.32 1.08 42.316.158 35.21 1.102 47.123.594 47.692-.594.598-19.018-3.882-19.731-5.557-.605-1.42-1.01-2.72-.575-5.626.678-4.522.154-2.637-1.927-4.262-1.547-1.207-3.35-1.112-6.111-2.035-1.904-.637-4.887-1.719-5.722-.104-2.548 4.928-8.925 27.622-8.938 31.745-.01 3.161 1.79 1.992 5.286 2.857 2.054.509 3.614.55 5.5 1.067 3.367.924 3.8 1.425 5.383-2.947.676-1.866 1.458-3.527 1.729-3.695.52-.321 18.842 4.43 26.895 6.973l4.76 1.504-.309 1.907c-.17 1.049-1.81 6.717-3.642 12.596l-3.334 10.688h-32.018c-17.61 0-32.134-.194-32.276-.43zm-90.585-76.714c.01-20.623.244-40.614.522-44.426.891-12.26 1.7-12.948 15.694-13.356l9.05-.264v95.54H48.27z" fill="#0ff"/><path d="M319.497 117.008c-5.279-1.732-9.965-5.912-12.316-10.988-3.006-6.49-1.573-15.024 3.464-20.626 3.795-4.22 8.455-6.382 13.762-6.382 8.558 0 14.017 3.462 17.923 11.365 1.836 3.716 2.164 4.948 2.164 8.143 0 4.47-1.8 8.665-5.538 12.912-3.569 4.054-7.186 5.673-13.138 5.879-2.686.093-5.53-.044-6.32-.303zM62.635 432.984c-5.847-.229-11.665-.735-12.93-1.125-8.097-2.495-16.709-9.56-19.86-16.293-3.211-6.864-4.3-18.212-2.544-26.538 1.279-6.061 3.902-10.865 8.307-15.21 4.566-4.502 9.502-7.267 14.464-8.1 2.41-.406 37.227-.788 102.124-1.12l98.468-.506 5.16 2.225c2.84 1.224 6.194 2.94 7.456 3.815 4.147 2.874 9.943 9.655 12.317 14.41l2.24 4.486v19.05l-2.532 5.128c-3.404 6.894-9.473 13.113-15.635 16.02-9.06 4.273-1.207 3.95-98.772 4.068-48.198.058-92.416-.082-98.263-.31zM249.31 422.14c5.012-.888 8.163-2.396 11.47-5.488 3.445-3.223 6.287-9.079 7.168-14.77 1.59-10.277-2.936-19.212-12.676-25.02l-4.018-2.396-82.673-.374c-46.765-.212-89.918-.146-99.353.15l-16.68.526-3.762 1.795c-4.754 2.269-9.133 6.807-11.606 12.028-1.723 3.637-1.84 4.285-1.84 10.205 0 6.068.08 6.48 1.996 10.301 2.573 5.128 6.194 8.706 11.857 11.714l4.535 2.408 95.964-.216c67.7-.152 97.04-.406 99.618-.863z" fill="#a0a0a0"/><ellipse cx="81.352" cy="398.121" rx="19.798" ry="19.123" fill="#b3b3b3"/><ellipse cx="150.571" cy="397.789" rx="18.793" ry="18.635" fill="#b3b3b3"/><ellipse cx="217.755" cy="397.917" rx="19.294" ry="18.857" fill="#b3b3b3"/><ellipse cx="217.453" cy="405.211" rx=".665" ry=".199" fill="#b3b3b3"/></svg>